<?xml version="1.0" encoding="utf-8"?>
<!-- Generator: Adobe Illustrator 25.4.1, SVG Export Plug-In . SVG Version: 6.00 Build 0)  -->
<svg version="1.1" id="레이어_1" xmlns="http://www.w3.org/2000/svg" xmlns:xlink="http://www.w3.org/1999/xlink" x="0px"
	 y="0px" viewBox="0 0 30 42" style="enable-background:new 0 0 30 42;" xml:space="preserve">
<style type="text/css">
	.st0{fill:#20D7FF;}
	.st1{fill:#333333;}
</style>
<g>
	<polygon class="st0" points="28.57,40.67 15,31.63 1.43,40.67 1.43,1.33 28.57,1.33 	"/>
	<path class="st1" d="M28.57,41.67c-0.19,0-0.39-0.06-0.55-0.17L15,32.83L1.99,41.51c-0.31,0.2-0.7,0.22-1.03,0.05
		c-0.33-0.17-0.53-0.51-0.53-0.88V1.33c0-0.55,0.45-1,1-1h27.14c0.55,0,1,0.45,1,1v39.35c0,0.37-0.2,0.71-0.53,0.88
		C28.89,41.64,28.73,41.67,28.57,41.67z M15,30.63c0.19,0,0.39,0.06,0.55,0.17l12.01,8.01V2.33H2.43v36.48l12.01-8.01
		C14.61,30.68,14.81,30.63,15,30.63z"/>
</g>
</svg>
