<?xml version="1.0" encoding="utf-8"?>
<!-- Generator: Adobe Illustrator 25.4.1, SVG Export Plug-In . SVG Version: 6.00 Build 0)  -->
<svg version="1.1" id="레이어_1" xmlns="http://www.w3.org/2000/svg" xmlns:xlink="http://www.w3.org/1999/xlink" x="0px"
	 y="0px" viewBox="0 0 22 31" style="enable-background:new 0 0 22 31;" xml:space="preserve">
<style type="text/css">
	.st0{fill:#FFFFFF;}
	.st1{fill:#333333;}
	.st2{fill:#20D7FF;}
</style>
<polygon class="st0" points="20.98,29.97 11,23.32 1.02,29.97 1.02,1.03 20.98,1.03 "/>
<g>
	<path class="st1" d="M20.98,30.97c-0.55,0-1-0.45-1-1V2.03H2.02v27.94c0,0.55-0.45,1-1,1s-1-0.45-1-1V1.03c0-0.55,0.45-1,1-1h19.96
		c0.55,0,1,0.45,1,1v28.94C21.98,30.52,21.53,30.97,20.98,30.97z"/>
</g>
<g>
	<path class="st2" d="M20.98,30.97c-0.19,0-0.38-0.05-0.55-0.17L11,24.52L1.58,30.8c-0.46,0.3-1.08,0.18-1.39-0.28
		c-0.31-0.46-0.18-1.08,0.28-1.39l9.98-6.65c0.34-0.22,0.77-0.22,1.11,0l9.98,6.65c0.46,0.31,0.58,0.93,0.28,1.39
		C21.62,30.81,21.3,30.97,20.98,30.97z"/>
</g>
</svg>
