<?xml version="1.0" encoding="utf-8"?>
<!-- Generator: Adobe Illustrator 25.4.1, SVG Export Plug-In . SVG Version: 6.00 Build 0)  -->
<svg version="1.1" id="레이어_1" xmlns="http://www.w3.org/2000/svg" xmlns:xlink="http://www.w3.org/1999/xlink" x="0px"
	 y="0px" viewBox="0 0 30 42" style="enable-background:new 0 0 30 42;" xml:space="preserve">
<style type="text/css">
	.st5{fill:#FFFFFF;}
	.st3{fill:#333333;}
	.st4{fill:#20D7FF;}
</style>
<polygon class="st5" points="28.57,40.59 15,31.54 1.43,40.59 1.43,1.24 28.57,1.24 "/>
<g>
	<g>
		<path class="st3" d="M28.57,41.67c-0.55,0-1-0.45-1-1V2.33H2.43v38.35c0,0.55-0.45,1-1,1s-1-0.45-1-1V1.33c0-0.55,0.45-1,1-1
			h27.14c0.55,0,1,0.45,1,1v39.35C29.57,41.23,29.12,41.67,28.57,41.67z"/>
	</g>
	<g>
		<path class="st4" d="M28.57,41.67c-0.19,0-0.38-0.05-0.55-0.17L15,32.83L1.99,41.51c-0.46,0.31-1.08,0.18-1.39-0.28
			c-0.31-0.46-0.18-1.08,0.28-1.39l13.57-9.05c0.34-0.22,0.77-0.22,1.11,0l13.57,9.05c0.46,0.31,0.58,0.93,0.28,1.39
			C29.21,41.52,28.89,41.67,28.57,41.67z"/>
	</g>
</g>
</svg>
