<?xml version="1.0" encoding="utf-8"?>
<!-- Generator: Adobe Illustrator 25.4.1, SVG Export Plug-In . SVG Version: 6.00 Build 0)  -->
<svg version="1.1" id="레이어_1" xmlns="http://www.w3.org/2000/svg" xmlns:xlink="http://www.w3.org/1999/xlink" x="0px"
	 y="0px" viewBox="0 0 22 31" style="enable-background:new 0 0 22 31;" xml:space="preserve">
<style type="text/css">
	.st0{fill:#20D7FF;}
	.st1{fill:#333333;}
</style>
<g>
	<polygon class="st0" points="20.98,29.97 11,23.32 1.02,29.97 1.02,1.03 20.98,1.03 	"/>
	<path class="st1" d="M20.98,30.95c-0.19,0-0.38-0.05-0.54-0.16L11,24.49l-9.44,6.29c-0.3,0.2-0.69,0.22-1.01,0.05
		c-0.32-0.17-0.52-0.5-0.52-0.86V1.03c0-0.54,0.44-0.98,0.98-0.98h19.96c0.54,0,0.98,0.44,0.98,0.98v28.94
		c0,0.36-0.2,0.69-0.52,0.86C21.3,30.91,21.14,30.95,20.98,30.95z M11,22.34c0.19,0,0.38,0.05,0.54,0.16L20,28.14V2.01H2v26.13
		l8.46-5.64C10.62,22.39,10.81,22.34,11,22.34z"/>
</g>
</svg>
