<svg width="48" height="46" viewBox="0 0 48 46" fill="none" xmlns="http://www.w3.org/2000/svg">
<g filter="url(#filter0_d_764_1024)">
<rect x="4" width="40" height="38" fill="white"/>
<rect x="4" width="40" height="38" fill="white"/>
<g clip-path="url(#clip0_764_1024)">
<path d="M23.9997 24.3376C23.6513 24.3376 23.3171 24.2061 23.0698 23.9718C22.8226 23.7374 22.6823 23.4193 22.6797 23.0866V11.2461C22.6797 10.9118 22.8187 10.5912 23.0663 10.3548C23.3138 10.1184 23.6496 9.9856 23.9997 9.9856C24.3498 9.9856 24.6856 10.1184 24.9331 10.3548C25.1807 10.5912 25.3197 10.9118 25.3197 11.2461V23.0866C25.3171 23.4193 25.1768 23.7374 24.9296 23.9718C24.6823 24.2061 24.3481 24.3376 23.9997 24.3376Z" fill="#333333"/>
<path d="M5 15.2185V34.8414C5 35.4898 5.26972 36.1115 5.74982 36.57C6.22991 37.0284 6.88104 37.2859 7.56 37.2859C8.23895 37.2859 8.89009 37.0284 9.37018 36.57C9.85027 36.1115 10.12 35.4898 10.12 34.8414V15.2185" fill="#333333"/>
<path d="M24.0004 37.2857C23.3215 37.2857 22.6703 37.0281 22.1902 36.5697C21.7102 36.1113 21.4404 35.4895 21.4404 34.8412V28.9877C21.4404 28.3394 21.7102 27.7176 22.1902 27.2592C22.6703 26.8008 23.3215 26.5432 24.0004 26.5432C24.6794 26.5432 25.3305 26.8008 25.8106 27.2592C26.2907 27.7176 26.5604 28.3394 26.5604 28.9877V34.8412C26.5604 35.4895 26.2907 36.1113 25.8106 36.5697C25.3305 37.0281 24.6794 37.2857 24.0004 37.2857Z" fill="#333333"/>
<path d="M40.4402 17.6626C39.8888 17.6606 39.3525 17.4899 38.9101 17.1756L24.0002 6.47134L9.09018 17.147C8.54649 17.5357 7.86333 17.7023 7.19101 17.6101C6.51869 17.5178 5.91227 17.1744 5.50516 16.6552C5.09805 16.136 4.92359 15.4837 5.02017 14.8417C5.11675 14.1997 5.47648 13.6207 6.02017 13.2319L22.4701 1.45818C22.9115 1.14207 23.4484 0.971191 24.0002 0.971191C24.5519 0.971191 25.0888 1.14207 25.5302 1.45818L42.0002 13.2606C42.4311 13.5684 42.7495 13.998 42.9101 14.4885C43.0708 14.9789 43.0654 15.5052 42.8949 15.9926C42.7244 16.48 42.3974 16.9037 41.9603 17.2035C41.5232 17.5033 40.9983 17.664 40.4602 17.6626H40.4402Z" fill="#4ADFFF"/>
<path d="M26.0501 16.4596H22.0001C21.6712 16.4322 21.3649 16.288 21.1418 16.0556C20.9187 15.8231 20.7949 15.5192 20.7949 15.2039C20.7949 14.8886 20.9187 14.5847 21.1418 14.3523C21.3649 14.1198 21.6712 13.9757 22.0001 13.9482H26.1001C26.4291 13.9757 26.7353 14.1198 26.9584 14.3523C27.1815 14.5847 27.3054 14.8886 27.3054 15.2039C27.3054 15.5192 27.1815 15.8231 26.9584 16.0556C26.7353 16.288 26.4291 16.4322 26.1001 16.4596H26.0501Z" fill="#333333"/>
<path d="M26.0501 20.3842H22.0001C21.6712 20.3567 21.3649 20.2126 21.1418 19.9801C20.9187 19.7477 20.7949 19.4438 20.7949 19.1285C20.7949 18.8132 20.9187 18.5093 21.1418 18.2768C21.3649 18.0444 21.6712 17.9002 22.0001 17.8728H26.1001C26.4291 17.9002 26.7353 18.0444 26.9584 18.2768C27.1815 18.5093 27.3054 18.8132 27.3054 19.1285C27.3054 19.4438 27.1815 19.7477 26.9584 19.9801C26.7353 20.2126 26.4291 20.3567 26.1001 20.3842H26.0501Z" fill="#333333"/>
</g>
</g>
<defs>
<filter id="filter0_d_764_1024" x="0" y="0" width="48" height="46" filterUnits="userSpaceOnUse" color-interpolation-filters="sRGB">
<feFlood flood-opacity="0" result="BackgroundImageFix"/>
<feColorMatrix in="SourceAlpha" type="matrix" values="0 0 0 0 0 0 0 0 0 0 0 0 0 0 0 0 0 0 127 0" result="hardAlpha"/>
<feOffset dy="4"/>
<feGaussianBlur stdDeviation="2"/>
<feComposite in2="hardAlpha" operator="out"/>
<feColorMatrix type="matrix" values="0 0 0 0 0 0 0 0 0 0 0 0 0 0 0 0 0 0 0.25 0"/>
<feBlend mode="normal" in2="BackgroundImageFix" result="effect1_dropShadow_764_1024"/>
<feBlend mode="normal" in="SourceGraphic" in2="effect1_dropShadow_764_1024" result="shape"/>
</filter>
<clipPath id="clip0_764_1024">
<rect width="38" height="36.2857" fill="white" transform="translate(5 1)"/>
</clipPath>
</defs>
</svg>
