<?xml version="1.0" encoding="utf-8"?>
<!-- Generator: Adobe Illustrator 25.4.1, SVG Export Plug-In . SVG Version: 6.00 Build 0)  -->
<svg version="1.1" id="레이어_1" xmlns="http://www.w3.org/2000/svg" xmlns:xlink="http://www.w3.org/1999/xlink" x="0px"
	 y="0px" viewBox="0 0 38 38" style="enable-background:new 0 0 38 38;" xml:space="preserve">
<style type="text/css">
	.st0{fill:#333333;}
	.st1{fill:#20D7FF;}
</style>
<g>
	<g>
		<path class="st0" d="M2.56,38C1.15,38,0,36.86,0,35.44V13.52c0-1.41,1.15-2.56,2.56-2.56s2.56,1.15,2.56,2.56v21.92
			C5.12,36.86,3.97,38,2.56,38z"/>
	</g>
	<g>
		<path class="st1" d="M35.44,16.08c-0.49,0-0.98-0.14-1.42-0.43L19,5.63L3.98,15.65c-1.18,0.78-2.76,0.47-3.55-0.71
			c-0.78-1.18-0.47-2.76,0.71-3.55L17.58,0.43c0.86-0.57,1.98-0.57,2.84,0l16.44,10.96c1.18,0.78,1.49,2.37,0.71,3.55
			C37.08,15.68,36.27,16.08,35.44,16.08z"/>
	</g>
	<g>
		<path class="st0" d="M19,38c-1.41,0-2.56-1.14-2.56-2.56v-5.48c0-1.41,1.14-2.56,2.56-2.56s2.56,1.14,2.56,2.56v5.48
			C21.56,36.86,20.41,38,19,38z"/>
	</g>
	<g>
		<g>
			<path class="st0" d="M19,24.44c-0.73,0-1.32-0.59-1.32-1.32v-12.4c0-0.73,0.59-1.32,1.32-1.32s1.32,0.59,1.32,1.32v12.4
				C20.32,23.85,19.73,24.44,19,24.44z"/>
		</g>
		<g>
			<g>
				<path class="st0" d="M21.05,16.19h-4.09c-0.73,0-1.32-0.59-1.32-1.32s0.59-1.32,1.32-1.32h4.09c0.73,0,1.32,0.59,1.32,1.32
					S21.77,16.19,21.05,16.19z"/>
			</g>
			<g>
				<path class="st0" d="M21.05,20.3h-4.09c-0.73,0-1.32-0.59-1.32-1.32s0.59-1.32,1.32-1.32h4.09c0.73,0,1.32,0.59,1.32,1.32
					C22.36,19.71,21.77,20.3,21.05,20.3z"/>
			</g>
		</g>
	</g>
</g>
</svg>
