<?xml version="1.0" encoding="utf-8"?>
<!-- Generator: Adobe Illustrator 25.4.1, SVG Export Plug-In . SVG Version: 6.00 Build 0)  -->
<svg version="1.1" id="레이어_1" xmlns="http://www.w3.org/2000/svg" xmlns:xlink="http://www.w3.org/1999/xlink" x="0px"
	 y="0px" viewBox="0 0 36 32" style="enable-background:new 0 0 36 32;" xml:space="preserve">
<style type="text/css">
	.st0{fill:#20D7FF;}
</style>
<g>
	<g>
		<path class="st0" d="M27.98,9.15c-0.19,0-0.38-0.05-0.55-0.17L18,2.7L8.58,8.98C8.11,9.29,7.49,9.17,7.19,8.71
			C6.88,8.25,7.01,7.63,7.47,7.32l9.98-6.65c0.34-0.22,0.77-0.22,1.11,0l9.98,6.65c0.46,0.31,0.58,0.93,0.28,1.39
			C28.62,9,28.3,9.15,27.98,9.15z"/>
	</g>
	<g>
		<path class="st0" d="M6.61,18.18v12.74c0,0.16-0.08,0.24-0.24,0.24H4.59c-0.16,0-0.24-0.08-0.24-0.24V18.18H0.47
			c-0.07,0-0.12-0.02-0.17-0.07S0.23,18,0.23,17.92v-1.6c0-0.07,0.02-0.12,0.07-0.17s0.1-0.07,0.17-0.07h10.04
			c0.07,0,0.12,0.02,0.17,0.07s0.07,0.1,0.07,0.17v1.6c0,0.17-0.08,0.26-0.24,0.26H6.61z"/>
		<path class="st0" d="M22.77,29.26c-0.6,0.76-1.32,1.32-2.17,1.69c-0.85,0.37-1.8,0.55-2.85,0.55c-1.17,0-2.18-0.21-3.03-0.63
			s-1.54-0.99-2.08-1.71s-0.94-1.56-1.2-2.51c-0.26-0.95-0.39-1.96-0.39-3.03c0-1.04,0.13-2.04,0.4-2.99
			c0.27-0.95,0.67-1.79,1.22-2.51c0.55-0.72,1.24-1.29,2.08-1.72s1.84-0.64,3-0.64c1.13,0,2.12,0.22,2.96,0.65
			c0.84,0.43,1.54,1.01,2.09,1.73c0.55,0.72,0.97,1.55,1.24,2.5c0.27,0.95,0.4,1.94,0.39,2.98c-0.01,1.17-0.15,2.23-0.42,3.17
			C23.74,27.73,23.33,28.55,22.77,29.26z M17.75,17.9c-0.77,0-1.44,0.17-1.99,0.51c-0.55,0.34-1.01,0.78-1.36,1.32
			c-0.35,0.54-0.61,1.15-0.78,1.84c-0.17,0.69-0.25,1.37-0.25,2.05s0.08,1.36,0.25,2.05c0.17,0.69,0.43,1.3,0.78,1.85
			c0.35,0.55,0.81,0.99,1.36,1.33c0.55,0.34,1.22,0.51,1.99,0.51s1.44-0.17,1.99-0.51c0.55-0.34,1-0.78,1.35-1.33
			s0.6-1.16,0.77-1.85c0.17-0.69,0.25-1.37,0.25-2.05c0-0.67-0.08-1.34-0.24-2.02c-0.16-0.68-0.42-1.29-0.77-1.84
			c-0.35-0.55-0.81-0.99-1.36-1.34C19.19,18.07,18.52,17.9,17.75,17.9z"/>
		<path class="st0" d="M28.97,25.04v5.86c0,0.17-0.09,0.26-0.26,0.26h-1.78c-0.16,0-0.24-0.09-0.24-0.26V16.32
			c0-0.07,0.02-0.12,0.07-0.17c0.05-0.05,0.1-0.07,0.17-0.07h4.04c1.48,0,2.65,0.36,3.51,1.08s1.29,1.84,1.29,3.36
			c0,0.73-0.12,1.38-0.37,1.95c-0.25,0.57-0.59,1.04-1.04,1.42c-0.45,0.38-0.97,0.67-1.58,0.86s-1.27,0.29-1.99,0.29H28.97z
			 M28.97,18.18v4.78h1.62c0.89,0,1.6-0.19,2.12-0.57c0.52-0.38,0.78-1.01,0.78-1.89c0-0.76-0.21-1.34-0.62-1.73
			c-0.41-0.39-0.95-0.59-1.62-0.59H28.97z"/>
	</g>
</g>
</svg>
